<svg xmlns="http://www.w3.org/2000/svg" fill-rule="evenodd" stroke-linejoin="round" stroke-miterlimit="2" clip-rule="evenodd" viewBox="0 0 32 32" id="new-car"><path d="M11.107 16.136A2.996 2.996 0 0 0 9 19v4c0 .796.316 1.559.879 2.121A2.996 2.996 0 0 0 12 26h14c.796 0 1.559-.316 2.121-.879A2.996 2.996 0 0 0 29 23v-4a2.996 2.996 0 0 0-2.107-2.864l-.746-5.536A3 3 0 0 0 23.174 8h-8.348a3 3 0 0 0-2.973 2.6l-.746 5.536ZM24 20a1 1 0 1 1 0 2 1 1 0 0 1 0-2Zm-10 0a1 1 0 1 1 0 2 1 1 0 0 1 0-2Zm10.856-4H13.144l.691-5.133a.999.999 0 0 1 .991-.867h8.348c.501 0 .925.37.991.867L24.856 16Z"></path><path d="M18 25a1 1 0 0 0-1-1h-4a1 1 0 0 0-1 1v2.038c0 .786.312 1.539.868 2.094a2.958 2.958 0 0 0 2.094.868h.002A3.036 3.036 0 0 0 18 26.964V25ZM26 25a1 1 0 0 0-1-1h-4a1 1 0 0 0-1 1v2.038c0 .786.312 1.539.868 2.094a2.958 2.958 0 0 0 2.094.868h.002A3.036 3.036 0 0 0 26 26.964V25ZM9 2C5.689 2 3 4.689 3 8s2.689 6 6 6 6-2.689 6-6-2.689-6-6-6ZM8 7H7a1 1 0 0 0 0 2h1v1a1 1 0 0 0 2 0V9h1a1 1 0 0 0 0-2h-1V6a1 1 0 0 0-2 0v1Z"></path><path d="M29 19c0-.796-.316-1.559-.879-2.121A2.996 2.996 0 0 0 26 16H12c-.796 0-1.559.316-2.121.879A2.996 2.996 0 0 0 9 19v4c0 .796.316 1.559.879 2.121A2.996 2.996 0 0 0 12 26h14c.796 0 1.559-.316 2.121-.879A2.996 2.996 0 0 0 29 23v-4Zm-15 1a1 1 0 1 1 0 2 1 1 0 0 1 0-2Zm10 0a1 1 0 1 1 0 2 1 1 0 0 1 0-2Z"></path></svg>