<?xml version="1.0" encoding="iso-8859-1"?>
<!-- Uploaded to: SVG Repo, www.svgrepo.com, Generator: SVG Repo Mixer Tools -->
<!DOCTYPE svg PUBLIC "-//W3C//DTD SVG 1.1//EN" "http://www.w3.org/Graphics/SVG/1.1/DTD/svg11.dtd">
<svg fill="#000000" height="800px" width="800px" version="1.1" id="Capa_1" xmlns="http://www.w3.org/2000/svg" xmlns:xlink="http://www.w3.org/1999/xlink" 
	 viewBox="0 0 377.962 377.962" xml:space="preserve">
<path d="M266.751,139.249v49.075c0,4.971-4.029,9-9,9s-9-4.029-9-9v-49.075c0-4.971,4.029-9,9-9S266.751,134.278,266.751,139.249z
	 M76.646,43.117c0-20.693,16.835-37.528,37.528-37.528s37.529,16.835,37.529,37.528c0,20.694-16.836,37.529-37.529,37.529
	S76.646,63.811,76.646,43.117z M94.646,43.117c0,10.769,8.761,19.529,19.528,19.529c10.769,0,19.529-8.761,19.529-19.529
	c0-10.768-8.761-19.528-19.529-19.528C103.407,23.589,94.646,32.349,94.646,43.117z M84.709,158.114
	c-0.528-4.941-4.957-8.527-9.907-7.991c-4.942,0.529-8.52,4.964-7.991,9.907l8.507,79.478c0.063,0.675,0.202,1.329,0.407,1.952
	c1.197,3.65,4.633,6.188,8.541,6.188c0.072,0,0.146-0.001,0.219-0.003h59.382c4.646,0.125,8.654-3.35,9.156-8.041l8.515-79.575
	c0.528-4.942-3.049-9.377-7.991-9.906c-4.962-0.534-9.378,3.049-9.907,7.991l-7.653,71.531H92.364L84.709,158.114z M100.395,110.784
	h4.779v5.159c0,4.971,4.029,9,9,9s9-4.029,9-9v-5.159h4.783c20.886,0,34.931,12.65,46.962,42.298
	c1.093,2.692,3.419,4.692,6.244,5.369c2.83,0.677,5.805-0.053,7.999-1.959l74.489-64.723c3.752-3.26,4.15-8.945,0.891-12.697
	c-3.261-3.752-8.945-4.15-12.697-0.891l-65.312,56.749c-10.111-20.54-26.978-42.146-58.576-42.146h-27.563
	c-37.577,0-54.318,30.55-63.643,53.53l-36.09,88.95c-1.869,4.606,0.351,9.855,4.956,11.724c1.108,0.45,2.254,0.663,3.381,0.663
	c3.556,0,6.924-2.121,8.343-5.619l36.09-88.95C65.462,123.433,79.507,110.784,100.395,110.784z M101.259,273.275
	c0-4.971-4.029-9-9-9s-9,4.029-9,9v81.095H67.943c-4.971,0-9,4.029-9,9s4.029,9,9,9h24.125c0.063,0.001,0.128,0.002,0.191,0.002
	c2.486,0,4.736-1.008,6.365-2.637c1.629-1.628,2.637-3.879,2.637-6.365c0-0.064-0.001-0.127-0.002-0.191V273.275z M301.187,188.324
	v-39.788c0-4.971-4.029-9-9-9s-9,4.029-9,9v39.788c0,4.971,4.029,9,9,9S301.187,193.295,301.187,188.324z M335.625,188.324v-79.576
	c0-4.971-4.029-9-9-9s-9,4.029-9,9v79.576c0,4.971,4.029,9,9,9S335.625,193.295,335.625,188.324z M123.174,186.865v-43.61
	c0-4.971-4.029-9-9-9s-9,4.029-9,9v43.61c0,4.971,4.029,9,9,9S123.174,191.835,123.174,186.865z M368.962,30.205H180.045
	c-4.971,0-9,4.029-9,9s4.029,9,9,9h179.917v178.547h-176.97c-4.971,0-9,4.029-9,9s4.029,9,9,9h72.834v109.616h-25.828v-64.621
	c0-4.971-4.029-9-9-9s-9,4.029-9,9v64.621h-12.404c-4.971,0-9,4.029-9,9s4.029,9,9,9h21.244c0.107,0.002,0.214,0.002,0.319,0h43.51
	c0.053,0.001,0.105,0.001,0.159,0.001s0.106,0,0.16-0.001h21.242c4.971,0,9-4.029,9-9s-4.029-9-9-9h-12.402V244.753h95.136
	c4.971,0,9-4.029,9-9V39.205C377.962,34.235,373.932,30.205,368.962,30.205z M160.406,354.37h-15.32v-81.095c0-4.971-4.029-9-9-9
	s-9,4.029-9,9v90.097c0,4.971,4.029,9,9,9c0.063,0,0.128,0,0.191-0.002h24.129c4.971,0,9-4.029,9-9S165.377,354.37,160.406,354.37z"
	/>
</svg>